<svg id="Layer_1" data-name="Layer 1" xmlns="http://www.w3.org/2000/svg" viewBox="0 0 72 72"><defs><style>.cls-1{fill:#f28db5;}</style></defs><title>logo</title><path class="cls-1" d="M56.23,63.9a30.14,30.14,0,0,1-19.48,7.27c-17.81,0-32.25-16-32.25-35.76C4.5,18.34,15.28,4.08,29.7.51A51.35,51.35,0,0,0,26.38,18.8C26.38,40,38.94,57.87,56.23,63.9Z"/><path class="cls-1" d="M46,8.58c0,11.5-4.73,20.44-12.79,28.1C28.13,20.72,28.13-1,46,8.58Z"/><path class="cls-1" d="M69,35.41A37.54,37.54,0,0,1,58.56,61.75,44.38,44.38,0,0,1,36.19,40.14,49.48,49.48,0,0,0,50.57,4.75c0-.56,0-1.11,0-1.67C61.44,8.8,69,21.13,69,35.41Z"/><path class="cls-1" d="M69,35.41A37.54,37.54,0,0,1,58.56,61.75C49,57.74,39.77,50,34.91,40.14c8.82-8.66,15.66-21.3,15.66-35.39,0-.56,0-1.11,0-1.67C61.44,8.8,69,21.13,69,35.41Z"/></svg>