<svg xmlns="http://www.w3.org/2000/svg" xmlns:xlink="http://www.w3.org/1999/xlink" width="72" height="72" viewBox="0 0 72 72">
    <defs>
        <circle id="b" cx="28" cy="28" r="28"/>
        <filter id="a" width="146.4%" height="146.4%" x="-23.2%" y="-19.6%" filterUnits="objectBoundingBox">
            <feOffset dy="2" in="SourceAlpha" result="shadowOffsetOuter1"/>
            <feGaussianBlur in="shadowOffsetOuter1" result="shadowBlurOuter1" stdDeviation="4"/>
            <feColorMatrix in="shadowBlurOuter1" values="0 0 0 0 0 0 0 0 0 0 0 0 0 0 0 0 0 0 0.0886265851 0"/>
        </filter>
    </defs>
    <g fill="none" fill-rule="nonzero">
        <g transform="translate(8 6)">
            <use fill="#000" filter="url(#a)" xlink:href="#b"/>
            <use fill="#FFF" xlink:href="#b"/>
        </g>
        <g fill="#F19ABE">
            <path d="M30.237 34.113c4.533 0 8.21-3.606 8.21-8.053 0-4.447-3.677-8.06-8.21-8.06-4.533 0-8.21 3.607-8.21 8.053 0 4.447 3.677 8.06 8.21 8.06zm-2.868-4.873c.075-.267.15-.527.231-.793.095-.307.183-.34.469-.194.49.247 1.006.387 1.55.454.346.04.693.006 1.012-.134.605-.26.7-.946.19-1.36a2.491 2.491 0 0 0-.577-.333c-.53-.227-1.08-.4-1.584-.693-.809-.474-1.325-1.134-1.264-2.1.068-1.094.7-1.78 1.72-2.14.42-.154.42-.147.428-.58v-.44c.006-.327.068-.38.394-.394h.306c.706 0 .706 0 .706.694 0 .486 0 .493.497.566.38.06.74.167 1.094.32.197.087.265.22.21.42-.088.3-.17.6-.271.894-.096.28-.184.32-.456.193a3.552 3.552 0 0 0-1.74-.34 1.216 1.216 0 0 0-.462.093c-.523.227-.611.794-.163 1.147.224.18.483.307.755.413.462.187.93.374 1.38.614 1.406.766 1.787 2.5.794 3.68-.36.426-.822.713-1.372.86-.238.066-.347.186-.333.426.013.24 0 .474 0 .714 0 .213-.11.326-.327.333-.258.007-.523.007-.781 0-.231-.007-.34-.133-.34-.353 0-.174 0-.347-.007-.52-.007-.38-.013-.4-.394-.46-.483-.074-.951-.18-1.393-.394-.333-.153-.367-.24-.272-.593z"/>
            <path d="M48.654 34.787h-.958c-.632-1.9-1.869-3.587-3.52-4.894a.884.884 0 0 0-.027-.186c-.347-1.194.081-2.28.577-3.06.347-.547-.102-1.247-.754-1.167-1.461.18-2.467.707-3.16 1.3a3.003 3.003 0 0 0-.965 1.56c-1.047 4.253-4.955 7.42-9.61 7.42a9.953 9.953 0 0 1-6.008-2 9.277 9.277 0 0 0-.618 6.187s0 .013.006.033a9.51 9.51 0 0 0 .816 2.127c.469.993 1.149 2.153 2.086 3.093 1.353 1.367 1.584 3.06 1.618 3.793v.36c.027.36.333.647.707.647h4.295a.7.7 0 0 0 .707-.693v-1.04c.625.08 1.264.126 1.91.126.509 0 1.005-.026 1.501-.08v.994a.7.7 0 0 0 .707.693h4.309a.7.7 0 0 0 .707-.693v-1.04c.006-.347.129-1.727 1.46-2.907l.143-.12c.014-.013.028-.02.041-.033 1.482-1.294 2.576-2.907 3.14-4.707h.904c.72 0 1.305-.573 1.305-1.28v-3.153a1.314 1.314 0 0 0-1.319-1.28zm-5.375.226a1.054 1.054 0 0 1-1.067-1.046c0-.58.475-1.047 1.067-1.047.59 0 1.067.467 1.067 1.047 0 .58-.476 1.046-1.067 1.046z"/>
        </g>
    </g>
</svg>
