<svg xmlns="http://www.w3.org/2000/svg" width="24" height="24" viewBox="0 0 24 24">
    <path fill="#F19ABE" fill-rule="nonzero" d="M22.656 1.319C21.776.439 20.718 0 19.48 0H4.495C3.257 0 2.198.44 1.32 1.319.439 2.199 0 3.257 0 4.495V19.48c0 1.238.44 2.297 1.319 3.177.88.879 1.938 1.319 3.176 1.319H19.48c1.239 0 2.298-.44 3.177-1.32.879-.879 1.318-1.938 1.318-3.176V4.495c0-1.238-.44-2.297-1.318-3.176zm-3.02 16.88c-.22.478-.711.894-1.476 1.248s-1.444.531-2.037.531c-.166 0-.343-.013-.53-.039a8.446 8.446 0 0 1-.476-.078 5.09 5.09 0 0 1-.516-.14 8.339 8.339 0 0 1-.46-.156 63.31 63.31 0 0 0-.983-.367c-1.707-.625-3.374-1.75-5.003-3.38-1.628-1.628-2.755-3.295-3.379-5.002a52.076 52.076 0 0 0-.367-.983 8.901 8.901 0 0 1-.296-.975 8.227 8.227 0 0 1-.078-.476 3.869 3.869 0 0 1-.04-.531c0-.593.178-1.272.532-2.037.353-.765.77-1.256 1.248-1.475.552-.229 1.077-.343 1.577-.343.114 0 .198.01.25.03.051.022.137.115.257.282.12.166.25.377.39.632s.279.502.414.741a32.871 32.871 0 0 1 .624 1.155c.031.053.1.151.203.297.104.146.182.276.234.39a.794.794 0 0 1 .078.328c0 .156-.106.346-.32.57-.213.223-.447.429-.702.616a6.092 6.092 0 0 0-.703.601c-.213.214-.32.388-.32.523 0 .073.019.159.055.258a2.415 2.415 0 0 0 .25.507c.067.115.112.188.132.219.573 1.03 1.231 1.917 1.975 2.661s1.631 1.402 2.661 1.975c.031.02.104.065.22.133a2.375 2.375 0 0 0 .507.25.768.768 0 0 0 .257.053c.166 0 .395-.171.687-.514.291-.344.588-.685.89-1.023.301-.338.546-.507.733-.507.104 0 .213.026.328.078a2.4 2.4 0 0 1 .39.234c.146.104.245.172.297.203l.827.453c.551.291 1.012.548 1.381.772.37.224.57.377.602.46.02.053.03.136.03.25 0 .5-.115 1.025-.344 1.575z"/>
</svg>
