<svg xmlns="http://www.w3.org/2000/svg" xmlns:xlink="http://www.w3.org/1999/xlink" width="72" height="72" viewBox="0 0 72 72">
    <defs>
        <circle id="b" cx="28" cy="28" r="28"/>
        <filter id="a" width="146.4%" height="146.4%" x="-23.2%" y="-19.6%" filterUnits="objectBoundingBox">
            <feOffset dy="2" in="SourceAlpha" result="shadowOffsetOuter1"/>
            <feGaussianBlur in="shadowOffsetOuter1" result="shadowBlurOuter1" stdDeviation="4"/>
            <feColorMatrix in="shadowBlurOuter1" values="0 0 0 0 0 0 0 0 0 0 0 0 0 0 0 0 0 0 0.0886265851 0"/>
        </filter>
    </defs>
    <g fill="none" fill-rule="nonzero">
        <g transform="translate(8 6)">
            <use fill="#000" filter="url(#a)" xlink:href="#b"/>
            <use fill="#FFF" xlink:href="#b"/>
        </g>
        <path fill="#F19ABE" d="M21.123 37.658V24.34c0-.74.613-1.34 1.37-1.34H36.1c.756 0 1.37.6 1.37 1.34v13.318a.452.452 0 0 1-.457.447H21.579a.452.452 0 0 1-.456-.447zm10.989 4.563c0 1.535-1.273 2.779-2.842 2.779-1.569 0-2.84-1.244-2.84-2.78 0-1.534 1.271-2.779 2.84-2.779 1.57 0 2.842 1.245 2.842 2.78zm-5.289-2.78h-6.366c-.253 0-.457.2-.457.447v1.355c0 .247.204.447.457.447h5.103a3.645 3.645 0 0 1 1.263-2.249zm20.154 2.78c0 1.535-1.272 2.779-2.841 2.779-1.57 0-2.841-1.244-2.841-2.78 0-1.534 1.272-2.779 2.84-2.779 1.57 0 2.842 1.245 2.842 2.78zM52 39.888v1.355a.452.452 0 0 1-.457.447h-3.697c-.264-1.774-1.825-3.142-3.71-3.142-1.886 0-3.446 1.368-3.71 3.142H32.98a3.646 3.646 0 0 0-1.264-2.249h7.059V26.665c0-.493.409-.893.913-.893H44c1.214 0 2.348.59 3.028 1.573l2.779 4.027c.407.59.625 1.287.625 2v6.07h1.111c.253 0 .457.2.457.446zm-4.632-8.413l-2.223-3.089a.46.46 0 0 0-.373-.19h-3.466c-.253 0-.457.2-.457.447v3.09c0 .246.204.446.457.446h5.688c.37 0 .587-.408.374-.704z"/>
    </g>
</svg>
